<svg width="24" height="24" viewBox="0 0 24 24" fill="none" xmlns="http://www.w3.org/2000/svg">
<g clip-path="url(#clip0_436_1522)">
<path d="M21.6489 20.6256C21.5831 20.7396 21.4884 20.8343 21.3743 20.9002C21.2603 20.966 21.1309 21.0006 20.9992 21.0006H2.99923C2.86764 21.0005 2.73841 20.9657 2.6245 20.8998C2.51059 20.8339 2.41602 20.7393 2.35029 20.6253C2.28455 20.5113 2.24997 20.382 2.25 20.2504C2.25003 20.1188 2.28469 19.9896 2.35048 19.8756C3.77829 17.4072 5.97861 15.6372 8.54642 14.7981C7.27626 14.042 6.28943 12.8898 5.73747 11.5185C5.18551 10.1473 5.09894 8.63272 5.49105 7.20749C5.88316 5.78226 6.73228 4.52515 7.908 3.62921C9.08373 2.73327 10.521 2.24805 11.9992 2.24805C13.4774 2.24805 14.9147 2.73327 16.0905 3.62921C17.2662 4.52515 18.1153 5.78226 18.5074 7.20749C18.8995 8.63272 18.813 10.1473 18.261 11.5185C17.709 12.8898 16.7222 14.042 15.452 14.7981C18.0199 15.6372 20.2202 17.4072 21.648 19.8756C21.714 19.9895 21.7488 20.1188 21.7489 20.2505C21.7491 20.3821 21.7146 20.5115 21.6489 20.6256Z" fill="url(#paint0_linear_436_1522)"/>
</g>
<defs>
<linearGradient id="paint0_linear_436_1522" x1="2.25" y1="2.6231" x2="20.1371" y2="22.8043" gradientUnits="userSpaceOnUse">
<stop stop-color="#FFA770"/>
<stop offset="1" stop-color="#F86060"/>
</linearGradient>
<clipPath id="clip0_436_1522">
<rect width="24" height="24" fill="white"/>
</clipPath>
</defs>
</svg>
